# xmcd
# 
# Track frame offsets:
#     150
#     18435
#     29802
#     53357
#     68977
#     84535
#     96677
#     111192
#     127800
#     142102
# 
# Disc length: 2107
# 
# Revision: 3
# Processed by: cddbd v1.5.2PL0 Copyright (c) Steve Scherf et al.
# Submitted via: BonkEnc v1.0.8
# 
DISCID=8c08390a
DTITLE=Krokus - To You All
DYEAR=1977
DGENRE=Hard Rock
TTITLE0=Highway Song
TTITLE1=To You All
TTITLE2=Festival
TTITLE3=Move It On
TTITLE4=Mr. Greedy
TTITLE5=Lonesome Rider
TTITLE6=Protection
TTITLE7=Trying Hard
TTITLE8=Don't Stop Playing
TTITLE9=Take It, Don't Leave It
EXTD=
EXTT0=
EXTT1=
EXTT2=
EXTT3=
EXTT4=
EXTT5=
EXTT6=
EXTT7=
EXTT8=
EXTT9=
PLAYORDER=
